<?xml version="1.0" encoding="UTF-8" standalone="no"?><!DOCTYPE svg PUBLIC "-//W3C//DTD SVG 1.1//EN" "http://www.w3.org/Graphics/SVG/1.1/DTD/svg11.dtd"><svg width="100%" height="100%" viewBox="0 0 550 550" version="1.1" xmlns="http://www.w3.org/2000/svg" xmlns:xlink="http://www.w3.org/1999/xlink" xml:space="preserve" xmlns:serif="http://www.serif.com/" style="fill-rule:evenodd;clip-rule:evenodd;stroke-linejoin:round;stroke-miterlimit:2;"><g><path d="M266.835,69.98c0,-7.999 0.056,-8.235 2.604,-10.784l2.604,-2.606l14.135,0.53c45.983,1.723 88.785,17.339 124.261,45.335c7.812,6.165 22.964,20.978 29.681,29.018c22.71,27.178 38.235,60.491 44.111,94.651c2.144,12.464 4.452,43.458 3.515,47.194c-0.283,1.132 -1.529,3.071 -2.768,4.31c-2.173,2.175 -2.585,2.253 -11.921,2.253c-6.291,0 -9.628,0.037 -11.476,-1.605c-2.13,-1.892 -2.283,-6.012 -2.705,-14.984c-1.169,-24.938 -3.369,-37.929 -9.607,-56.767c-14.651,-44.245 -48.527,-82.284 -92.171,-103.5c-22.405,-10.891 -44.494,-16.174 -74.627,-17.848c-14.342,-0.796 -15.636,-2.056 -15.636,-15.197Zm0.003,65.465c-0.003,-7.802 0.68,-10.151 3.698,-12.718c1.605,-1.365 3.042,-1.49 12.826,-1.117c26.028,0.994 51.996,9.47 74.428,24.294c9.487,6.269 24.895,20.37 31.827,29.127c20.697,26.146 31.47,56.935 31.47,89.944c0,10.275 -0.09,10.834 -2.08,12.824c-1.969,1.971 -2.603,2.082 -11.904,2.082c-9.3,0 -9.935,-0.111 -11.904,-2.082c-1.145,-1.145 -2.08,-2.786 -2.08,-3.647c0,-5.302 -2.016,-25.33 -3.051,-30.313c-3.293,-15.848 -9.596,-30.791 -18.344,-43.486c-5.525,-8.017 -20.406,-23.239 -27.763,-28.397c-18.079,-12.677 -38.046,-19.999 -59.666,-21.879c-13.589,-1.181 -13.86,-1.257 -15.788,-4.423c-1.323,-2.17 -1.666,-4.274 -1.668,-10.209l-0,0Zm0,63.744c0.003,-8.449 1.667,-12.07 6.109,-13.298c2.897,-0.801 3.41,-0.773 12.607,0.675c15.967,2.515 33.199,11.368 45.178,23.206c14.98,14.807 23.109,32.742 24.747,54.594c1.012,13.502 -0.872,15.515 -14.52,15.515c-8.688,0 -9.074,-0.08 -11.331,-2.339c-2.078,-2.079 -2.394,-3.153 -2.854,-9.675c-1.877,-26.598 -22.738,-49.69 -48.146,-53.296c-3.233,-0.459 -6.636,-1.308 -7.564,-1.889c-2.956,-1.846 -4.229,-5.915 -4.226,-13.494l0,0Zm-153.372,35.207c15.657,-10.791 36.186,-18.613 55.053,-20.974c1.631,-0.205 9.831,-0.248 18.222,-0.098c12.659,0.227 16.77,0.633 24.155,2.386c23.9,5.675 41.831,15.385 58.624,31.751c10.586,10.316 17.788,20.049 23.987,32.422c5.406,10.792 8.202,18.756 10.716,30.529c2.478,11.604 2.702,32.989 0.467,44.309c-5.269,26.678 -15.879,46.797 -34.345,65.133c-18.235,18.105 -38.363,28.98 -63.792,34.467c-10.04,2.165 -35.497,2.163 -45.661,-0.005c-21.332,-4.552 -40.825,-14.083 -56.181,-27.471c-21.152,-18.441 -36.191,-44.911 -40.854,-71.91c-5.901,-34.161 2.076,-67.745 22.46,-94.558c6.124,-8.054 18.953,-20.331 27.15,-25.981l0,-0Zm43.304,30.981c-2.255,-12.811 4.926,-25.588 17.09,-30.404c6.093,-2.413 17.121,-2.049 22.628,0.746c9.832,4.991 15.256,13.757 15.256,24.658c0,11.301 -5.134,19.88 -14.726,24.604c-17.229,8.487 -36.997,-1.142 -40.247,-19.604l0,0Zm-62.291,20.338c3.293,-7.142 9.696,-12.804 17.254,-15.257c4.243,-1.377 15.407,-0.446 19.657,1.641c17.289,8.484 21.345,31.319 7.943,44.728c-5.992,5.996 -12.16,8.304 -20.82,7.791c-10.73,-0.635 -19.14,-6.121 -23.735,-15.478c-2.862,-5.83 -3.012,-17.541 -0.3,-23.425l-0,0Zm126.588,12.079c0,-12.571 6.903,-22.272 18.9,-26.561c12.335,-4.41 26.909,1.751 33.499,14.162c1.959,3.69 2.25,5.231 2.243,11.873c-0.011,9.219 -1.943,13.949 -8.198,20.076c-5.605,5.489 -11.766,7.73 -20.17,7.334c-14.962,-0.705 -26.273,-12.28 -26.273,-26.884l0,0Zm-56.628,35.025c0.446,-7.007 3.485,-11.59 9.913,-14.95c5.654,-2.956 12.223,-3.176 17.899,-0.602c5.127,2.326 7.47,4.629 9.851,9.681c3.693,7.836 2.311,15.712 -3.797,21.642c-6.345,6.161 -14.682,7.61 -22.588,3.926c-4.932,-2.298 -9.126,-6.718 -10.592,-11.161c-0.566,-1.719 -0.876,-5.56 -0.687,-8.536Zm63.609,19.513c4.629,-5.068 8.92,-7.686 14.499,-8.846c11.733,-2.44 24.677,3.709 30.696,14.582c2.265,4.092 2.491,5.227 2.491,12.555c0,6.811 -0.318,8.702 -2.054,12.231c-2.626,5.34 -7.288,9.99 -12.961,12.929c-3.821,1.979 -5.536,2.326 -11.683,2.361c-6.219,0.035 -7.863,-0.283 -12.027,-2.329c-2.87,-1.41 -6.53,-4.239 -9.04,-6.987c-9.656,-10.572 -9.623,-25.875 0.079,-36.496Zm-133.08,5.994c3.78,-6.979 8.236,-11.082 14.723,-13.555c2.266,-0.865 5.724,-1.188 10.941,-1.026c6.574,0.203 8.255,0.579 12.166,2.716c5.812,3.175 10.602,8.64 12.891,14.709c1.442,3.824 1.73,6.07 1.43,11.149c-0.641,10.852 -6.154,19.11 -15.761,23.616c-6.807,3.192 -16.337,3.206 -23.015,0.032c-5.613,-2.667 -10.398,-7.316 -13.429,-13.048c-1.97,-3.726 -2.242,-5.219 -2.242,-12.297c0,-7.151 0.258,-8.533 2.296,-12.297l-0,0Zm214.316,26.652c1.413,-3.877 2.768,-7.368 3.009,-7.758c0.241,-0.391 23.389,-0.605 51.438,-0.475l50.999,0.238l5.51,2.625c6.904,3.289 12.286,8.613 15.347,15.184c1.303,2.799 5.451,16.696 9.218,30.885c7.427,27.981 9.731,33.698 15.634,38.793c4.254,3.673 8.031,5.658 14.141,7.436c8.278,2.408 12.165,9.24 8.877,15.601c-0.406,0.786 -0.45,1.458 -0.708,2.033c-1.675,3.724 -12.407,3.371 -189.826,3.603c-180.527,0.236 -190.18,0.514 -192.022,-3.144c-0.23,-0.456 -0.337,-0.974 -0.641,-1.56c-1.643,-3.178 -1.571,-7.97 0.158,-10.611c0.342,-0.523 0.516,-0.988 0.774,-1.398c2.153,-3.439 10.186,-3.193 172.312,-3.193c91.817,0 167.541,-0.232 168.278,-0.515c1.137,-0.436 1.013,-0.905 -0.825,-3.089c-4.959,-5.899 -7.141,-11.99 -14.801,-41.343c-6.031,-23.108 -7.039,-25.715 -11.434,-29.576c-5.333,-4.685 -8.242,-5.573 -18.213,-5.556c-14.243,0.024 -17.29,2.296 -29.655,22.102c-19.348,30.991 -26.214,37.834 -42.034,41.882c-6.081,1.556 -9.446,1.677 -46.467,1.662l-39.911,-0.016l7.839,-4.164c28.563,-15.171 52.98,-42.163 63.004,-69.646l-0,-0Zm-147.903,6.756c2.462,-3.56 8.262,-7.938 12.837,-9.687c2.149,-0.821 5.705,-1.146 10.828,-0.987c6.573,0.203 8.255,0.579 12.166,2.716c9.38,5.125 14.538,14.092 14.522,25.255c-0.014,10.37 -5.514,19.329 -14.824,24.143c-6.062,3.136 -15.932,3.62 -22.584,1.109c-6.44,-2.432 -11.901,-7.424 -15.077,-13.783c-2.225,-4.452 -2.597,-6.139 -2.597,-11.741c0,-7.148 1.411,-12.227 4.728,-17.023l0,0Zm-95.402,92.416c0.017,-3.873 1.573,-6.669 4.998,-8.979c3.291,-2.218 5.754,-2.417 9.676,-0.777c3.766,1.574 5.655,4.746 5.655,9.499c0,3.34 -0.433,4.364 -2.882,6.814c-2.463,2.464 -3.463,2.883 -6.88,2.883c-3.514,0 -4.396,-0.399 -7.289,-3.292c-2.53,-2.532 -3.288,-3.953 -3.277,-6.149Z"/></g></svg>